<mxfile host="Electron" agent="Mozilla/5.0 (Windows NT 10.0; Win64; x64) AppleWebKit/537.36 (KHTML, like Gecko) draw.io/24.7.17 Chrome/128.0.6613.36 Electron/32.0.1 Safari/537.36" version="24.7.17">
  <diagram name="第 1 页" id="WRGwH71PiHR4hv6vxLnC">
    <mxGraphModel dx="1028" dy="557" grid="1" gridSize="10" guides="1" tooltips="1" connect="1" arrows="1" fold="1" page="1" pageScale="1" pageWidth="827" pageHeight="1169" math="0" shadow="0">
      <root>
        <mxCell id="0" />
        <mxCell id="1" parent="0" />
        <mxCell id="3pI8I0yipiPx_hhtvPzK-1" value="GitHub&lt;br style=&quot;font-size: 15px;&quot;&gt;远程" style="rounded=1;whiteSpace=wrap;html=1;strokeWidth=5;shadow=1;fontColor=#000000;labelBackgroundColor=none;gradientColor=none;fillColor=#FFF2CC;fontSize=15;" parent="1" vertex="1">
          <mxGeometry x="80" y="200" width="120" height="160" as="geometry" />
        </mxCell>
        <mxCell id="3pI8I0yipiPx_hhtvPzK-2" value="本地&lt;br style=&quot;font-size: 15px;&quot;&gt;暂存" style="rounded=1;whiteSpace=wrap;html=1;strokeWidth=5;shadow=1;fontSize=15;fillColor=#A9C4EB;" parent="1" vertex="1">
          <mxGeometry x="360" y="200" width="120" height="160" as="geometry" />
        </mxCell>
        <mxCell id="3pI8I0yipiPx_hhtvPzK-3" value="本地&lt;br style=&quot;font-size: 15px;&quot;&gt;repository" style="rounded=1;whiteSpace=wrap;html=1;strokeWidth=5;glass=0;shadow=1;fontSize=15;fillColor=#D5E8D4;" parent="1" vertex="1">
          <mxGeometry x="640" y="200" width="120" height="160" as="geometry" />
        </mxCell>
        <mxCell id="3pI8I0yipiPx_hhtvPzK-6" value="" style="shape=flexArrow;endArrow=classic;html=1;rounded=0;shadow=1;fillColor=#D5E8D4;" parent="1" edge="1">
          <mxGeometry width="50" height="50" relative="1" as="geometry">
            <mxPoint x="210" y="220" as="sourcePoint" />
            <mxPoint x="630" y="220" as="targetPoint" />
            <Array as="points">
              <mxPoint x="310" y="120" />
            </Array>
          </mxGeometry>
        </mxCell>
        <mxCell id="3pI8I0yipiPx_hhtvPzK-7" value="" style="shape=flexArrow;endArrow=classic;html=1;rounded=0;shadow=1;fillColor=#A9C4EB;" parent="1" edge="1">
          <mxGeometry width="50" height="50" relative="1" as="geometry">
            <mxPoint x="630" y="340" as="sourcePoint" />
            <mxPoint x="490" y="340" as="targetPoint" />
          </mxGeometry>
        </mxCell>
        <mxCell id="3pI8I0yipiPx_hhtvPzK-12" value="" style="shape=flexArrow;endArrow=classic;html=1;rounded=0;fontStyle=0;shadow=1;fillColor=#A9C4EB;" parent="1" edge="1">
          <mxGeometry width="50" height="50" relative="1" as="geometry">
            <mxPoint x="210" y="220" as="sourcePoint" />
            <mxPoint x="350" y="220" as="targetPoint" />
          </mxGeometry>
        </mxCell>
        <mxCell id="3pI8I0yipiPx_hhtvPzK-13" value="&lt;font style=&quot;font-size: 15px;&quot;&gt;提取（fetch）&lt;/font&gt;" style="text;strokeColor=none;align=center;fillColor=none;html=1;verticalAlign=middle;whiteSpace=wrap;rounded=0;shadow=1;" parent="1" vertex="1">
          <mxGeometry x="260" y="180" width="60" height="30" as="geometry" />
        </mxCell>
        <mxCell id="3pI8I0yipiPx_hhtvPzK-15" value="&lt;span style=&quot;font-size: 15px;&quot;&gt;commits+全部提交&lt;/span&gt;" style="text;strokeColor=none;align=center;fillColor=none;html=1;verticalAlign=middle;whiteSpace=wrap;rounded=0;shadow=1;" parent="1" vertex="1">
          <mxGeometry x="500" y="350" width="140" height="30" as="geometry" />
        </mxCell>
        <mxCell id="3pI8I0yipiPx_hhtvPzK-16" value="&lt;span style=&quot;font-size: 15px;&quot;&gt;推送&lt;/span&gt;&lt;div&gt;&lt;span style=&quot;font-size: 15px;&quot;&gt;（push）&lt;/span&gt;&lt;/div&gt;" style="text;strokeColor=none;align=center;fillColor=none;html=1;verticalAlign=middle;whiteSpace=wrap;rounded=0;shadow=1;" parent="1" vertex="1">
          <mxGeometry x="260" y="350" width="60" height="30" as="geometry" />
        </mxCell>
        <mxCell id="3pI8I0yipiPx_hhtvPzK-17" value="&lt;font style=&quot;font-size: 15px;&quot;&gt;拉取（pull）&lt;/font&gt;" style="text;strokeColor=none;align=center;fillColor=none;html=1;verticalAlign=middle;whiteSpace=wrap;rounded=0;shadow=1;" parent="1" vertex="1">
          <mxGeometry x="490" y="140" width="60" height="30" as="geometry" />
        </mxCell>
        <mxCell id="3pI8I0yipiPx_hhtvPzK-18" value="" style="shape=flexArrow;endArrow=classic;html=1;rounded=0;shadow=1;fillColor=#FFF2CC;" parent="1" edge="1">
          <mxGeometry width="50" height="50" relative="1" as="geometry">
            <mxPoint x="350" y="340" as="sourcePoint" />
            <mxPoint x="210" y="340" as="targetPoint" />
          </mxGeometry>
        </mxCell>
        <mxCell id="3pI8I0yipiPx_hhtvPzK-19" value="" style="shape=image;verticalLabelPosition=bottom;labelBackgroundColor=default;verticalAlign=top;aspect=fixed;imageAspect=0;image=data:image/png,iVBORw0KGgoAAAANSUhEUgAAAS4AAAEXCAIAAACcVz5xAAAUqklEQVR4Ae2dPY4CuxKFr0aTsAtEwi6QSFgFEgmrQCJiEQQkbIKAhE0QEM0iSEhInp58ZfVtwLi77apT9pEmaKDpn1P1uX5sev75+R3xjwpQAXUF/lG/Al4AFaACP78josikgApAKEAUIczAsEAFiCJRpAIQChBFCDMwJlABokgUqQCEAkQRwgyMCVSAKBJFKgChAFGEMANjAhUgikSRCkAoQBQhzMCYQAWIIlGkAhAKEEUIMzAmUAGiSBSpAIQCRBHCDIwJVIAoEkUqAKEAUYQwA2MCFSCKRJEKQChAFCHMwJhABYgiUaQCEAoQRQgzMCZQAaJoDMXxZDqeTGfzxWy+WK7W7m+z3W22O7ftPprNF27P8WRKLzehAFFERNFhttnu9ofj9fZ3vf3dH8+Bf9fb3+l8OZ0vm+3Og2rCRyu5SKKoj6KLZvvD0YE3ELlOX3d8uqDq+KzE7wFvkyjqoLhcreXBi6G0GTYB/bXgSyKKcijC4vcJUWIpST5RzIvicrXebHdJir1PwMi877GU9M6qzkUUc6G4XK0LIPCVc8ckG7PJhwmimBjF5Wp9Ol9ePbi8d07ny3K1JpOpmCSKaVB0dWB5vMXc0el8Yfd1OJBEcRCK48kUsxEag1DyfTbbHYNkbyaJYk8UHYTJvbmAA+4PRwLZA0ii2BnF2XxRSTU4ZFw4nS8EshOQRLEDioSwK5yujOzkkdXuTBSjUCSEXSFs7k8gY8YXovgFRULYhGrINlPWMJBEMYTi/nAc4nz87qsCbOp8ApIovkdxuVq/uhHfSaLA9fa3XK0/eWS17xPFNorMSJPw9vUgzFdbgw5R/A+KzEi/IpR2B64K8EASxX9RLHX1dlpychyN+aqjkSj+H0VO2edgrNMxma/WjuJsvijyp0ydMADZ+Xr7q3mBTtUobrY7EC/kZXgFNtudL5+q2qgUxfFkyqTUez/aRp3Jao0ozuYLNOfj9bQUuN7+ZvMFo+J/+vuFycGktOX0yC+rmuqoKCoyKUWm7tO11ZOs1oIiOfzk6/jvV9JZrQLF8WSK73C8woACNdBYPops0gRc3NZHZc86Fo4iObQF29erLfgnHSWjyB86ffVsizuUSmOxKHLSwiJmkddc5IqcMlHkb50ifdrubuVNORaIIjm0C1inKy8sNpaGIvPSTt5sfeeSaCwKRfZprKPV4/qLobEcFDlv0cOPy/hKGT3VQlAkh2VA1fsuCvgZRwkoksPeHlzSF62vxTGPIteXloTTkHuxvk7VNorkcIjvlvdd0zTaRpEPxSgPp4F3ZJdGwyhyKn+g15b6daPTG1ZR5BRiqSAluS+LNJpEkSViEn8t+yDmGqomUWSJWDZFSe7OXNFoD0WZVabX25//S+IZPIhTwKsq8FB2W2mqMRQFZvOvt7/W8ybHk+lsvthsd6fzRcCBCoN2fzhutrvlav2aMQpY0xCNllCUKRG/Gs9hSSbDQ8b+cIxZGiog4+sQ0BpqQV5aQlGmRIw3zGy+2B+OAs4UdnqoT0/nSwyBXmSBcsNK0WgGRQGb3R/P1+zUO01gg/+b8f547g/HHmuyBXLU++P5NdMJGFfsIxsoyqSmA21W7f+H2x+OQ5JAmbRiyBXK0GgDRZnU9P54Dhe9KiAHQujUlsl3TufLcONmPYIBFMUW1vTLTt+ap/iUNQmETjqZHHVgyvPWymnfREdRLDV11U5acTfbnUz2Jdm5OZ0vPWrCsLAy1w/ev0FHUSZ7ca6Qo7gfT6ZDlq1fb3+n82V/OPrZudl8MZsvxpOp/2t5uX/f7emmXjbb3f5wdPOiQ0aHTt3R1oUFXg65pE4Y5zBx4L46fQSNomRIvD+eyQd7b4nIAvJ6+/PI5W4zzOaL5Wodv25hfzj620m+MWS06oTi/fHMLWxvcaBRFOvWOHP2FjHyi28nId1UuLp/BFYUCfwDYLF2wP3xhP2HjbgoSqamvWcUIyH0u7nwCIKfv6rXDb/QL2sw9OcV69zkq0T8vfTeAEVRODV1g2VvEfnFgQoIo4iZpoKiKBwSieJAlgZ+XX7kBezfIKIob5gcMxkDvbO2r3ftvgzfX70+b5kYEUX5kIg//9syW3kvxeYzPMNogRERRS+W5AaaYcqDLXxH8iiiVYxwKKqEREbFMCcCn6qgCDX+wqEoGQmb54KyioDro52iaQuxbailcFgoaoVERkV1MsXwa50o01K+HnpioaiSpTjbyMxl97BQJV9pESL2EicwAqGoGBI5maELvMr0lacdJDACoagYEjnFr4ui/Gobz6HYmsevCqOgqDsuOsN8FYs7ZFJAcjl4E0K/jTDdj4KibnbqTIJgj0y+Dn5YdesjdApQUPTjk+JGvt8rgpOgfnnCv4Z762PqAzEEiuqDorMNpxa1mHzLhvCb6s0bCBQlf8QdMDD+Q8G0UMl6XoQ2AULfTh9FEEs4RNWzlKxOj3lwkJxIfUmqPoo4lrg/nupZCiYtWa9KdxKrmSXpWl8fRRxLIGQpWZ0e8ODjyRTHAXQrFGUUobLThI8kBnR62EuCSosUKxRlFKHMwMkMLVwRJjNcpqrYRVdGsZmp624r2kALAKjzgqSpijmqJoo42amiAaB4ULwYnKJRK0fVRBEkO2WJqEhg89Qg/qDVRyWKGZ/P3/QzbscogECj1npUTRR1i0P1Mj3GNSvcB6FoVJFdDUWQQlFFdJ40oABCYFQpF9VQRFCcXdMAEoofqQdGlXJRDUWEqSRFb+OpAwqoD9Mq5aIaiuqFIkNiAAb1j9QDo7wCOigiFIryWvOM8QqoB0b5clEHRXWhGRLjqdDaUzcwypeLOiiqF4pa7sXzxiugO17Ll4s6KOoOeFxeE8+D4p66T2SUXwupg6Juz4bZqSJgnU6tO2QLl4sKKKr3bPhjqE48KO6s+9Cj8lHUTTyYnSqi1fXUuo8qFh6yFaKibjnO7LQrD7r7K+aowk1UojjSdTWePayAIorCTVQFFHVnMsKG56doCijmUMJNVAUUFdunLBTRSPt6Pbqdha+Xl3AHaRR126fC41xCO1V7KF2HkWyi1oWicPZfLT9pb1wxjZJsokqjqNueZvs0LSQyR1Ps3Eg2UaVRVKzC748nUZSBJ+1ZiGKWLr8uipKDXFp3rPloii13ybG7rqgomfrXDE/ae1dc/lYyioqyqv/XrrQOWs/RFH1Gss8nHRUVZb0/nvW4b0l3qljUlIyiYt5PFI3yqdh1l5yIlo6KRNEoD4qXrRgVieIz06yu5OIJRd8t7NREMctkhuIcEds2RhFVRFFy0bJ0gkoUjfKgeNlEMUtUzJR5Rh6WCaoiUb1PXUnXXToqRjKTaTdO8ffmQfGLRLHAqEgUFYnqfWqimAVF3VqRa1B786D4RcUJMLZtck1mEEVFonqfWnH4Joq5UJRcx9Tb8/jFlgKZGgcxhy0ZRcVk4/54EsWWl+O/1H2gBlfb5IqKksrie7mJK9R9zJSkw0hPZuhGRa4IN4Ff8yIV14LfH8+SUdRtTHPtW9PLTWwrLrURrmikoyJRNAEAzkUSxSyTij+/I3UUOZ+Bg1nMlSjOZAg/l0w6Kuqm/sIpR4yrcZ+AArrtU6KYq33q5pEkC/GAk/GjGAV026f3x1NypaR0VFQXl52bGAZA9tEtFAtH8ed3FLPKIes+LBdBSPt6GVVNfUlHxZ/fkW4hznLxKwA4O2Qdkb8eXHLV28/vqEYUWS7iwBa4EvWeTfkoqmcdLBcDAOB8pF4oCg/ZClFRfWpRuEmN49y2ruRrApl7B8mn9OskqOpTi/fHUzj3sMUAwtUidNrLRxFBZeaoCLwFrkE9OxWeydCJighNVOaoAQzUP1Jv2LjUV1gHhVoRBEUGRmFXiz8dQkiUL2F0UETo3DAwxrMhvGfufkzM8YULRbUEFaFz4+zBhxQLY/b1dAghUWWY1omKIJ0bFcW/+mLlO6gvxnJjtORCcGdxHRRxysXr7Y+BEQd+kJCo8uCV2lFkYMThEKRxqjXtrIYiSOeGFSMOijghUb5no9a2+fkd4ZSLbhRkmqrLJJQ/yBeKmijilIsuMKoMhLreD3V2kG6NVnaqjCJUjsoZf0UyoTxB+AcZXna1WvHnd4Qzu+gCI7up3i0kN3BKRN38SBNFnI6ZswGLRkkC3bmgSkTnBvIiuDNqoohWLuoOiloeoHhezLFYSxBlFKGKBB8bN9sdG6q5PRKQQ91JZmUUAfMTHxtJYz4aYe2uMo3hdFZGETNHJY35IESbUvapkOI0BgqKaA20pm1O5wtjY1osYeOhbnaqPK/obIxsGzdSKiYtaTFQPxrCw/6aQ21rW3fY1U9QkXNUbyo2cgZiPJ5MwTmU/9l+S1IIFNHm+j2BzQ0mqy3XiX9pwr7qKx8hUDQRGB2W+8NRN42JBwBhz9l8AR4MnVnVQyJEreg8BnOCsRkV/fb19rdcrQlkGHX8jNQbVL1h45REiYrgzZum2dw2gfyE4my+MDSwOmsidOZQUEyVo57Ol/3huNnulqv1ZrvbbHf7wzHrD3AYIT2Ty9XaRDraGlgRslOgBPXndzRwgjH8u4rZfLHZ7vIxeTpfZvNFnVnreDLNPd614En7Ur1hg5WguqsZgsr+cPTDc2BjuVoPOctXJ9gfjvUwaTQMNo0IEhKxouLAwNhpskGgmDmdL0XmrsvV2nQMbHII0rBBjIoDK8ZOmUbWfLVl79P5stnujEbL8WRaGH7eOjghES4qDgyMXQe52XyRNVn1Jm9uXG9/jszlag0I52y+cB2vkkJfU//mdqexO1D1JPkIqIPq7mc8mQ7Eo9MiteGna5q293an7DqJ4VsHyV1C91Ym6xdbIui+hENxeGC8P56unxmpLAKNCPNaA0fArMzkODhUSERMUH9+R6nYiA+PKpmqdy8EDt2wVRWNkSO12G6IUTFJYHSOHp5sbKo8cFbTc9V1A2psTjUIdhVBfn8o2Z0fgqI4sJXaNC0yjVAdPOcQWkNS02S5twFlB01Qk/tEPI3CGRpOatpMEIRFyA3e6/EBQyI0igkDo5vkiFmVJhkTMB0iYXXwygDCO5ghER3FtD/XiHR9MRoxQ6ILjwUHRljZcWtF5xNpV6jFBMa00fhTHIAdm53sJn53/0nbwPta/w+jmf9/2kZHMW1PL7JoFJjbiAzRn8wm8H6RgTFyLBaQ9/UU6CgmL10iGcidpr5aAu2d8lCMNL2WIQygmDxjjBwa89EInp06X8x3+4EEMt9H+JrbQDFtmhpfMGRyx8ifVmoNz+68aXtm+RiLPHLk+KuouQ0Uk6epy9U6UvQcv6UCz5S8MsXkqCYEN4Ni2jQ1sn/j40Nap4Ttp3sI3YbFB9W8Bkn81NSpbQnFtGlq15Ey1e/34tPjFhjyL9POJL1CIvMOfmpqD8W0aWqnwOjEco8V7B0h3WNv5InqfcYCUOw64PbWavgXLUVFd7e9SXgdg+MrxpbQ7vFKMVdyvf3tD8feJ2qdV/il9Yl+QwkI+sK3t56XME0dbqrm4yf2h6P7c09htZIXvRXZvWkaRSslotffXlRM+Nvi++NZADDelsk3TM9nWOmNeauZRDFh0Whiis9bS3jDLooWKwKrKCakkYHxE+HjyfS1wMZ/x+jwahjFVDON6k9b+0SC+vsWURxe/2vJbhvFVC0cQy1vSUcxh6K5Vk3TmrZRTNjCYZradAu3bQ5Fc62apubmUXRFY8wU39cihzQ2PcMNc19Fw9nBNIcm5xVb7uJeJlm03WP9zduLKeZNQ1HROofloJiwoWqxD54JfisolmGyEhJU74ipfl64PxyZrFpJUItpuRWFYsLYeL39FfnfEf2wFbOBHxWNTiG+Fb80FBPSeH88KwcSHEW7U4i1oJiWRtchTPUvhMeTqaHUFxnFwjgsqm3TGmlS1Y2tZv3rPyp9S9d4MnU/2nj9t6GGegywKJaUl3q/LTBB9feWicYWnF1fEsWuirX2NySgd8WYjZJRdJlqktn/ljcMeWnIkwCjoiH1YvBr7lM4ij+/I7R/bW3ImdBQLGAev8lea7t8FH9+RwIP3o+Pk0QxXqvmnmVzWHLbpjXkpPoNR9M5+m0Txa66XW9/xXNYEYqOTIRHmBHFTiiWN2nRChL+ZRUJqr9bhEYOUYxHsZhFbU0P/LRdHYrqpSNRjESxhqS0iWWNKCb8wXGkVzV3I4pNNd5uV1IcNjmsrlZs3bxK6UgU3+Ln36ynOGx5Y6VR0asgP89hqP6Rf/hibUmp98Pao6IXQjI8EkUfAJsb1QZD74S1R0UvhFh4JIpNAt12zcHQeyBRHHktfn5HAuGRKDZR5ENovfsRxf+gKDDVQRQ9ioY6WB6YfBtEsY2i0zrfInKieH88DYmQj73WkYniexSdTKn+07CPA7a8MEcHlY/wahHoXxLFEIouX037L+kNBYS0KJ7OF7ZnPHivG0TxC4pOsoT91TpRZFn4yl7rHaIYhaIHcniErApF93iuls/x5VsFiGIHFJMAWQmKTEff8hZ4kyh2RtED2a+pYwjFn99Rs+EUub0/HFkTBpD79BFR7ImiE3Q8mXYF8pMlMN/v9JAuQjjEiERxEIpe+tl8cTpfvjqurZAYueBhfziyK+M9ofcGUUyDojdAYG2AOQ7dTQX+YR4nCb3dh28QxcQoOpPM5ovNdnc6X07ny/5wtO6y48nU3Y57ODoT0eHgvR6BKGZB8VVovkMFwgoQRaJIBSAUIIoQZgiPl/y0BgWIIlGkAhAKEEUIM9Qw6vMewwoQRaJIBSAUIIoQZgiPl/y0BgWIIlGkAhAKEEUIM9Qw6vMewwoQRaJIBSAUIIoQZgiPl/y0BgWIIlGkAhAKEEUIM9Qw6vMewwoQRaJIBSAUIIoQZgiPl/y0BgWIIlGkAhAKEEUIM9Qw6vMewwoQRaJIBSAUIIoQZgiPl/y0BgWIIlGkAhAKEEUIM9Qw6vMewwoQRaJIBSAUIIoQZgiPl/y0BgWIIlGkAhAKEEUIM9Qw6vMewwoQRaJIBSAUIIoQZgiPl/y0BgWIIlGkAhAKEEUIM9Qw6vMewwoQRaJIBSAUIIoQZgiPl/y0BgWIIlGkAhAK/A/HHfUKh2fucwAAAABJRU5ErkJggg==;shadow=1;" parent="1" vertex="1">
          <mxGeometry x="112.93" y="300" width="54.13" height="50" as="geometry" />
        </mxCell>
        <mxCell id="3pI8I0yipiPx_hhtvPzK-20" value="" style="shape=image;verticalLabelPosition=bottom;labelBackgroundColor=default;verticalAlign=top;aspect=fixed;imageAspect=0;image=data:image/png,iVBORw0KGgoAAAANSUhEUgAAAH4AAAB2CAIAAACBErCyAAAfUklEQVR4AdWd+3Oc5XXH+bu0+67u0kqyZF181dWYGAcbGxssIWLLEiYXDHbJkITAQBJg0tuQSaZmOp3O1G1C2wn3hJjJtIlTwG4ok/7SJE5IOg5uXn3Xn/3qPO+u1pLtST0Z5bznOdfvOc95n/fdlbgjy7JyuVwqlcqr/3QpugmfJSmiDt+JLMtcoFwupxy8SzKEQTyNCOxDBMlSqZSt/gt8Ll2xUqnAD5FITNaQKSTSHCuVitRl8w5Xwz2ErwrNP7UEPMIAk5Ya5eKK0BLWz2AtwI3ZSqUilIM8NiFQEacOPZoiuCzUVAGCLSSdCDLhMkiWVv/5jpGAByMLkhQ/gEKLlMtl+jckFcLApnaknBIMQdJ2+BXuaYOjkhLkcgcOCI44QnxYQdI5WBSzkS64yC++pBWMUAPEmpgFtQAE0eIxeCm06Ubw7rVUbKmujFNyIPLwJJNDjxWx/p82UWHxlJHjCBa0MBxwCIByqeKBEkDRvl4biQXjXJZKpfrAETdEmeq7MjTt6Ryvs/PJBIG0RySjYMgQMSw4fGKy1Cgkj0QGpSJad0I8IuyOxHRHSsSHTxoMWije4VhTPS3LH+hDyBOXIrwjWCL0DRBZlikZghaaHnChI3ILTokTwsuTagGCCC7drJcEC0GyMMhyuRy7XltGFoMtd8kSTHcADSGxVKtQHYhZdaLQSHDkmKLrNXMBN+g0m7JQOEjixbUUlUv6fqpDT/RU0uXctGhZlBa6iOEVATfryaQqbl9eiB4CLREhAE0PXGMwiAmmwjSJFke4TuWZFngkbLSwQ8B16MMalyhDsCRCoaRZIeaKzGvvDuyoJE1Mlcvlamfn6V27Lhw58vHS0q+OH3/t8OFjo6N9nZ3ykuqmnMLCE21KyHKh/VAGMm3lsJ9DT3BoBiyCTBCjQWSnVCr5DSfNpJBDDFotvMyybP/Q0Afz89dWVsL/3jx8eEdvL5bVhiFOLv22lNIyQouESELZsInrMNZSdSTzwyXYwXXCrROQF0PCEgtd4HagQ3C6u0g9DdQ5M9Xqr0+cCKBz+cH8/EBnJ14gCKwwZrdPpq30rOyjUngpj7jwSGq32bDWyArJpAQl4TVFGpN2g6IJq7QSfIWkS3XGTLX6yfIyQBcSHy0uVjs6CCYkgjXiF4efEAg4gTqTXaugxyUBaIlWC5L5wAEvX4Pp7qFdUtAIWcVHEOEyVdcJknoQNMWQyqGRkSuN+93L8MH8/K6+vuBI0VJ7ogJN5EUgEPh+6fiIBuLmRoAu3maJBgn8pQG5M9ILimiJ4BKz4O4cos+ybLZabRF31eCD+fnBri6ZZXQE44VhFEbi6fhkdr4UWRUhAZgegHCL0LsEtKwQLkQQ4FIEYiIIJYjR6YVe5gYG1p0z3vWiP1pcZO4TRvCrS0EjGX4GvLiBhbu3+G6/kE4bVHu6/g6HUEKIBCQFtx4kVfy0dwCd0MVBvdBmlmX3Dg/fUL97DS4tLPjk8exAVn4d/TDomkToE98hQmVdovYiAUMqUYCGgODTqhDIeIWQ9ySpkAcX0Nec+c3SkqN5o/SlhYXBri5ikDtd4o7AtKp0XEVzHHkayxP3RFIabN1IpVKpDxwW2F9YQVkxsYPgIwmBpHM8JS8VMhBz1eqNAl0o75NHxgmMfGkF5aWkWgkVHMhFNr0qhRDJeA69u/EbN0BAuCT7NKh4QME46s0PNj0dHf/90EOFUG6AeWlhYXd/P+hAEAzZeTFgBsKTFR3ybWTE3YmudT0KVMx7H+uIkYCLiZZdl/ToedBV5XQpa25q78DABlBupHJpYYG7LhPDowo0MIngEjHPjhZktRHhWmveXMoB0Kf+Ci1KzI2CoJiFOw6s3WbwuHdg4Lebm/VeCZ88wZEuA7NRYBKj92lK5D1raFZp2SzL6rOe5TQImQj81CsWUkLC1NUFZNw5ODq6detNRL/5mccDcNpzB3cQdElnquFcV5KebH7C4WMtX8AozFbMgRo2naMNEQKSQMfqFyXwpTSyLLtrcNCbd5N0mDzk2CLh4flbAPHJyztM2bkigNSgD75d1JcwBBFK7cIssT8IzsWyLNszOPjx0tJD4+P4dcmbPnmqHR2KHxQgCIxIyIKlVgg3qJuBtNxshF5yRIYahDsWpggH6+mUd8ekdGh4WOf3K0tLD46Oun3eutyKyUPYYTdzrwqR+GmNvoYgHRHeOiyBoVzns9713R+0DGGOuUE7I5lyWCIC7GRZdufQ0BW7l15dXl7etg0VSlsqlW76mWfw+htmAaGocE20zoFOhR1xxFIC6PITjte8uT8ZknJhtaiqrwK0d41MzRWdIK8uLy+OjUkgFPKmTx7Qx50IDqBk5AKKij3tya4LoGdUO+Go8qDDpVzixk0HGYJukWjyHvjKiROLY2OqMQ9fMnvTJ89ktUqOHjl9DbKKRzIgiBjIuBgpsOouaq/PxMKNSziNS2c6ndYjDa72HtjmTHpuubq8fHJiwq2JvhWTZ8vqG+aAjtyRr7IAH/EJj0u0WApmHY28610OHLECBzWKSWTIBE/iY1+7p9rZ+ceZnsIdOEwe+cVIuVyeqVafn5s7ODz86aGh5W3bXjlw4JfHjwf11i9fOXjQ48eRCLKWjD9MoQUTjhMYFNQCbc3rM59reGX7uL7bvSGabzU9OTn5hxbQv7K0pLkf8scpcY719PzNvn2tw43kO0eODHd3YxB0xMFvKP+6aKDolrGp1TjrXVQO3A0WN9n45XL5ycnJVj4D0eQJmXuQikQCX52eBtNWiPftk/Sskj9a6h8piyBrrdLjiPnj1XUba/7fJdXite9cguMacbtw38y7dFJJjI1iBnJyYHzPA8/9pKtvixRLpdILc3Mtos+ZB5seEsxyufwvBw+2Avq1lZX35+fbVx+h873Ynu0/M/LI96Y6+2q/1MAni46aO4IOkYTLwm0kmVrXYwhkQ8ElLSZLISz4suarI5OHTnzrysrL144+faGzdxB3LU6e3y4tzdpRBEfh6JVl2dbu7t+dPLku+u8cOTLQ2UmE+04Pn70wd/bC3Knzk/3jtW+UMIERU9gBXCEmGb/5oc4uoedkpwY95iC4YQbHWGens4MkGfj598XGZoX7ysvXVl6+tvDCpUp7B+VpcfLonTs1I84QXnd7+ysHDjSH/r1jx/QOWbkcenpMuIN+V387johTHoO7IJZeEicEMmu6nuXUgZb0E/S9PBQA0xIeGJ9bPveJQOfnwguXOnvy3pejdSfPfy4sDK39qI9QcQfxl3v3NoH+/fn5yuobw3K53N5RufuxEce9hv53p7qrteaQ2dSdbzgSQTgFMMjUnmalEKRxFvjALQHE4DvBnAF0iKPPvNv65Ln4wAP+WQcouy8ieXZmphH0mjOoF+JO71cn8m+U8I98U0CQEeGtKQ4zx3Vj16uY+qlGRrrR/TOtp/wNjM/5nAF0iHzyVPKXiHLx5ORkI8guLyzooV+ShJRCX6lU/nzPnkI779v3c8rlcpgzBb1/frKjN/7uIygLDW6NjUBIy4CFNU+zaWKeGzqt7LXq2Gw6ZwAdIp88dtd9vvGZZ4d9m5VIUqK7o+Mf77knhd7nTKU9a9LvXoNT353S3AcZx5p9pjAkE8AhQizAKbjN0uzBdGEZZFFLyDeZM4AOcfSZd7v6hgio0ZnnG3Nz5EaEaFVW/6n1Hhob+/3atxTMGVloEXcmD2ce3EGQvlyrxxkvEguNj0oOfVqoIC1M01MUcwnQS6XS4MSe5nMG0CE0eWQky7JGZ57dq1+mJPTCVhAEB4eHafw1z01Ztu6c8a4H/a7+9vAiT2H4T+IJ6IU6EX+962GBIzoQkpGAi+Gs8DwDxE2IhRcvd68+bclX4eT5r8XF6vWX7O7daUI9ODz8vydPvj8/39FeOym2PmdS9B/53qRPHia7Jj7QOT5E4p3t8yqHHuDIQSa0r90ENL7xWiqVRqZqz01NIG6ydPSZd7v7thBD4eT58f33HxoeJgyE4Thx38iIn4tuaM6k6PO0BTjuyz9xCgVQkK6lgtU+KgF9nz/oeA3AWuhzObD2uakJxE2WFl68XGmv/3pC4eT5/dLS2Z07PeAsyzrsrxoIkVCVDcyZQvT1poGs5cvxwS/oIRNKVRs4dDEDq5AIymhVR2eaAHpDSwsvXu7qHeJT2cLJ8+zMjBJjvz+xe7c+XWF3U5tSqe2uz9XeE6Ro3iiHyROgwF3gcxmqteYrUAgFgjICNALyNzx5743eV5sXIz/zrKIv1+nkeXZmRjEI+lKp9NXp6d+dPHlk61aipRPbO9p33Tfw2NszN4pyI/lT5yerE/m3aPElQh6dT/sKdy2hVb/N+h0AcFEmVV/K38+Mztxc3FUVJo+iCpPHoVcmT62+Lr66vHz/yIhPQnptdE9vIyg3wD91fjK8aaDS4CPXAE15JJB/VBIQR5Qep2IYFVEqlaqjM608NzXv8UarCy9e7uwZxLtPHqAnpK9MTV1bWXlvfr6nvZ0UwF1iW+d6bmLvM3lCmxMS/BAGAvVZLxazEgltaioBcdPnTFqDI09f6Opd87Sl9/vPzszQZQrv6enpfyt6z+O9lmXZ9gP9NxH9U+cn+8byt2zyQskhwFBEqMGaFwmIpgXQElvkFs2ZFH0mjwJ4dOfOaysrX5udFfR8Ufnw8PCIvdo88rWJbZ/Ov9gtXByL0Tt7dx2t9o929m/tGtzV+emzWx//wewGZo5UTp2vnfflSz+BWASXyCieWteDKTVEzgnp3NI5U4i+7rqK5M5qdWnbNkHvmGo1q5R1fn/8h7Pjn8p/lZDMG/VTlmUPvLDtzI/yj0o28D9NHs5aAlDh4VqnfkCuQZ9GT7houszQjv0nvvXrFKBbyrnvqR+2d/YQmOLxmUN/7PtC/f37F16dFvqCg8wlTFIi9n1hZMPo52ee8a5QWtCr9cTqHzqBXnO4RJOY/AlNVe3sqc6/8MEtRbmR8btWXuKuA9CB2HW0Gto27/2767/Ar+J5glgolUoP/tWOoN765eJL29u78g/WhTguIHBESdbcZoW+pIOOFHYeeLQRNLeB39kzQKeTof2aSvmR702mYD3+g9mRmXzH8I/kxeGyd0tHqt46Z2J//VelQU+QEi3dU/tGghZY9lsTYYl59Jl3bwPEjVzsOnSGlOgvwVcqlcb29p1+s+CG+djbs9sP1G65AWuKIbNZli2+tL11rIPkg3+9I8w0YsORB5Cf68mHo6hLuNrStz9uhMtt4H/q4W8pGFqJyEul0q4j1cKzyue/P927pf5eiH1D8bBWLpfv+uzGXzk8+lrtGZtvehEt914Czn+hRxf6Kej9p+OeZdnxl351GyBu5GJ28euEDnBEuPO+auGZ/XP/OtXRW/96k8OBLsTU/GDo5dYvT7+VP214hNDU27fFmllPBKpSSK9UKh3+0muNcLkN/KEd+z3CEN6W3d2n3ygYOHnXD9e/coMFUPBJu/fUltaxDpLHz+3COAA6x+m8632aa41aKTev5OjssdsAcaGLY1//GfcocoAjHJf+dneA4+yFucfemh3fV7sBKjX9JHENHNnczKyffrD+1a7QFoWXta73mCiAgtNP3RLaO3sOf/nNQmhuKXPpO78fGN9DPNyfgE8xVyc6z7xT8Fi0/2z+Ts07kQkgvn52D7SnlWuRs/IPu7v6Ouha8FSEtIgIec+hdwW2oQt5fL1bdtzmo/3yuasT+5YJcnxr9+xklUuPLcuysX096dj5/Pen+VKNVwsjavz5v9jg8eb0G7Nb5+L5FeOK0P3WoIcFEYqBCQQ6uquL3/zolra5Gx/ds8Doe+Qz23/5k+PPnK2/Pkv7d9s9/WnvP3x+kkR8wgiXUql058NbzrxTcKtopeuHdta/Jo4XhzH0hy7rh0vXQdQTk4B+dvYM3IbeXz53VbgrjUc+s/3ahyvXPlx57ov56zM2aJZlywsTu7f30xw77xtI0f/sP00Nbu+qtMfTTmdvZcMfY51+Y3ZoZ3cKXcoBUpbqJxzFTfRBlPEKv2941y1Ff/nc1e37H6Z3vvLYlHC/9uHKs0/UTtB61ZFl2dNnZi7/4MGxEe36/K80b7unP508j789e+S58enFwYm7+8bu6t1138D+M1tPnS94Bm6l2U+/MTu6N39LwSgHHAiAhsMttwa9I+6d7nx2PUXq6h28dZNn69y8ws2y7KnHp69eXg7Q8/ltuVx+6vHpax+u/OLdxYH+/OlJCRdOnrMX5s78KD/2nH5ztvA5oBXQJcOckTuwYjtCEJIIya95Xx9MUCiwxgTjsqt3cOGFSz6aN09rziiYcrnMnEmhJ0JBL/Sv937+Jqtw8rQObiNJzRk/dhNJI0LCXow10DdSEz9VFr9veNdNRH/53NVtd6+AO5iCexg42osudvHVY0Jf3+Xedk//o6/ftM/Ez16Ye/T1Gc0ZRodwEKz0vtqU8sCHyKHXP1gyRPK61E8MefuXy+XuvqGbNXn8PPOVx6Z8zoC+Zr1H6NCr96t99Y/uGk2eRk3dnK85I+/E4ONeeDpuQHod7Pz/C2Y9OtiFI0JFwpnEOrqrm+z95XN/EO4ymM4ZoH/ui7MhpAB9mDzlcnnH4Wp65mkOcbqqORNcN7n0bvY7qBKsQR8KxWeeYU9JB9D9plEulzczeTRnKG0KJbh/8vPlkwsTioS0/+yzuxGAuPjqsfGt+QmEyZOeeVJ8G3E4zwRMiJlgEHDofVUCOfSehqR1ahY/6IO+9FkVv7NnYGOTZ3RuQeVPzzNAee3DlYuvHtu9va+jI/89PyLJsqynu/35L826pGjOPMp8M5NncMeaXzIJUIZLxSaIQqdSmBr0oetJjL4WxKADXy65cWdZ1tkzcEOTJz/PzOXPq4qpyZx5/435an/+DhJ3IeznvliM/sRo/fPxDZx5Hn19hvlOqykG/RTQLJGLwwjiWq3Pel23+HPdjwJanzz5nNm3Ql2bzJmrl5e3j9c+ZSVVGp/EXv7m3Wnv//T7D1w/ceZPW9sPVFufPD5nHJ9QdaGsRKgBBIrshjUfi7MsImSlXcNPF/ZjD/wWJ8/o3AL3n/DcFBB86vFpjKcEKY2N9PzPvx8Puv60Jd3tB1q964bnpuA6LUAQoCREyFaon3AEK3XziqVqwUGIQHfp5pNHcwbFJnNGOI6N9HhIIQAuuzrb/+nbB1Lohf7ocP6eS07XnTyn35jdsmvN+0i8sMnESQNzxNCCKfn6CQcJLWz4TktVy+Vy/8juwrmvOaP3QqVSyd/PFKL2/hvzekOgnMlBBPcxEd94smDiy6yetlYTrL3nafS0pTlDZ/hMB6jmBEFqKlAe8Wt/bFFcF3WjjfhALAHE4IvoLHrPozkjleZzRpD9+JX7+1cfkTywQBPAl09PFtZPzBbPPMO769/eATV5JN/AD/GELtEqbyHrf+eSuBuZQ4C9xojXEqeOUOT8Vz7szLN87g9jex4kynXnjPC69NbCYDV/L9bKA8cLX55rAr0mj877ijlMnibPTaFH1VvOZJeQoIiUX/tGAiAihyaIuwzlYaeHVQkgxuRZPvfJtn0rMl6pVJqcZwJ2n/x8eXxrfey6ZQ+1Uql0d3U0mvVus9F7nvQ8o2JTcgGiAKBpO0HsaAA6whwrarOeBGhqcTxJp/2e7Lph2rCUP/UMjI7v/QycRu9nHCCnn30i/2QKdQjSFmd4qOs3Pzvhio1oJo/Mbj/Qf/qt2vm9cFbgkTAEAjOENkVSdlze8VnnGwlupREt0ziGQB7fcFqcMwG1kS31z4NoInpFQHzn+U8FrSaXv3h3UWceBVaxv0YkjjpUvvhJ20qGra8GJ33xuXTQRddPOGwNAEKNfSSd4Ox63LU/4pMCjR2pf/7EjiZwNFl67/X562+Dix9on7JPsprY8aXVp63aJ6v67EXxN+oncue7wNp2yjHkHozQJUIsDpxCE6Fi1KYJEbw6+oPVzo9+9KDn3zp9+e2FPVMDDBn38vI37y58w7yu8ctv115jkI5HCxPiZm2F/H29J5D2vlymfGkRkBO+5DSmBqudl99eWBeURgL//PLB+cNjE6M9YyM9s5PVZ5+Y+e1/LDUSbs6/cvHEnqkBZSfEA+66FNwOFPl6JdSjpBxMoaL2X9P1qSj95R+EYtpthd3Ektt0evf2/s2g3xzQFlevXDxxaP+a3z0nQhJvvuMlj5afbYQAnU3ZaOL8Nosm0vKHUKHA5hshnzzvLLYI060Qm5vKv7BPl0B4vk4jABHUhQmrIpBhVZz6Z7MAjai8BgW3G8KSYqrujUMXiDlY7by0icmz4Xpcubg0NzXguQQaNDxHtoJnwXYn8cBxCxQjf2nsC46dG5ICkhBgGoTZSQpRP8WUpPNv/+S5cnHp3rvzv/moRNJ0WBKILlDIcUDBPdQyvazNerADNUz4lHd9doMzC2mMe0qildVtnjzq97a2NnL0CEkhJOgFcJQkjzDbBTsiUKf5cujVg+wmAgrKqT8ECB1T8oQ/JGXc5RXAJs88LU6eKxdPzF0/z9AHClLYAYIiBFDFz8YlLwhPMNAuQ+K1j0pw4EKu7/x0E7Aqwq2Lw08Raje3L3rnRO8tPfPoPKPwePr3zUf8aiBvQS0hTGuLQBEB6Yrv05Xi1aBHwhVoChUmtLw705I4AtFXHWJaCePkoKXNPG2t2/g6zwAroRIDOAaOJwiOTWSwHBRREX/Nud5hAh32hK860OLLHLTUfQdgECI1Ui6Xhwa6Lr01vy6ONyRw5eLSnulBvX2U00KUSZDWASw4klEBSJk0ERNoiNFzXow10GOCIHzTwcQBnLBdnF9IKwIGq8uUSqWbe+YJz03KEUzlmkswUo7qklAnGp8sUE8lUwsEUHDCoStBhMnotYGJmBMuSQtUKhUNeoonQhHTEaVSaWiga8PvecKG2DM9WIij0gTrcrnc1tambnB5ugpYHR+YTggH4SNTopUg6hF6h89pmdjY8AFZvIoj+7LMT3IY6O/Y5F33ysWl2cmqVxSg/xSGT0PowQK8HClnUkxKlXJAH8ItUIlAbGbyMGdIRIRe9uJIxWAJYU8BprR0iQC6tLmW4DOgnJM/zTIZtODLhbPYIQu0Qw+NQQn71iNEyWRZ1tbW5vHkf7B0o2+Y9dwEWOzXgLXmjHeVokKM2BS/G4QjwlW4wQbLcieb9a7XtX66gqzAIQeX1Kp+ai9LjO+pKWIhi6I3DkwIDdm2trYtg903NHn0fkYeQQfICBWBQs4NyWPKg4fp9p2uQe86Wqb7kFYaupS8ZFJJblYCt62tjUzYffSIF4ADFfFIrPXJw5zBqYftlSARx0h+A8eDJ7D0wRDd4DEFsFQqtbW11T8q4VYeNLEIxL6bCCU4uBW938qZZ3ay9p/4cmQdcYcVfgiepAAdgaDuFlhC3Vfdguj6m8uggCidKEPiIwyBPJzQ16Qhwpvdl3yjiGa1+eS5cvGEfpUZeQ8VpsLTpXaGA6R+dGHSCUz43BElAErIM9+DQG3gAJwIGhxDpIFLOMi4s5CPy+BLu0c3XpiS5I7CqkDZMdH75t8fDif3ax+ufPDm/D135e+B9Y9IAJoAPLBC4UKmG5RNbwu3GfCRNZ9OCOTQc+E0TNpTVnwuwRFBNPS7+F5tmYXjAml6xADxx//8UU93+wP3bn3t7w796qfHP35v6cJ3jzx6cmdf75o/b5naxxE5YtNDckX4ITsH2q25Qc8FeZjirLnNStmxhqM2xDouhbJU/ElVbtg9UkzvsYQVKkqUKCp/TuWuGGTQBW5xsOBZYAcjqDsHMRFcNpLBNZIQeM+hByCCw4FzmtAKV9DT+zgLtZRv3Yf9uEnO7p3hSzKFYqhQfonBJ3jCQ8AtOw2s6DZ37b7AFyMEhrX8NoscXBWDGwh86sQsli57IgTHpROy5hzRhO5LzvQwxEeRy5RQhJw1wcItC5dCXYLBe7DAJYTbQQumxAp+q4QFdHxPiHYZDglMjPR3nVweC850BOWXVTJ3wlGjiz03hFOm28cLTCmyTSUgJqZABo4LiInBQPhlHDhE44gDq3vFsZhAIMUUYoeDCHAXOCGZsKpLT5JgHCw37nyEnYDGNVu8kR0ywjhxcqCUWQL2y9pf8naguRni2wkiwx/ThgphjfaB474xRdqEjvEg4zlgCmhE+PQgJOywTT0k/GITjhvHiBOMMmJzACWZGqn/agOe0IeDmhdAIdLpkpEbmJjyVVDGLMG5mK9iJw1JSQYBhw+MnIkdFKmHL1EbIkQeMeIkL5dhFQtO1A6X/MIGfZrGCgeMQjEAHUKe6AtdFtohmXQVd2QiGfhcYh9OI7O8sJQRIgQ4xyjQRBi8BF+NtOA3/CtQktAhJ9SjMGf1iJYYQbghLHFIVZeUCjERjA74qWsHkdXgl6YWX9aw6UMJWAtVZB8ZLrGATSKB405lod717K/Qy66MM0yLADv4VItsG+l6TC6DBZoL4yKoHwKYwg7BwyEeR9AtBwEu3UKhRzeCcSR9VVDXPyoJUWqZ/ImA9CBSST/1S7Ewbl+CdsLjdr6nQRjBBXyMAIer+5OO8xHGjq8SDP0KhzDcgsMog2t+UR8rOHOCp0qHlazcHy6JFTG8NuLAJxPmybpmMY5uGoDHqXyRKdTCJgTy4sAPRCuX+cAhIEdfTOJzl+Hw5JPdCyMV/sOMKp67gyYAIm7kDhUfr6ij5YSv6jNIN+KS4qsGRBIcef+6JDZTgyy5/T92/f8BsOybb+pwNHYAAAAASUVORK5CYII=;shadow=1;" parent="1" vertex="1">
          <mxGeometry x="396.5" y="306" width="46.99" height="44" as="geometry" />
        </mxCell>
        <mxCell id="3pI8I0yipiPx_hhtvPzK-21" value="" style="shape=image;verticalLabelPosition=bottom;labelBackgroundColor=default;verticalAlign=top;aspect=fixed;imageAspect=0;image=data:image/png,iVBORw0KGgoAAAANSUhEUgAAAE4AAABMCAIAAABMABZBAAAFlklEQVR4Ae1aXUzbVhjtUxFSn6tCQkRAlEqVBoO2gpaJVEUERsMatExEEESIHQKLlAjwGpiYN2gVBJpFMCFOgP3wgBYKBe11e9jLtO1pDy35/wf2vLdJkzamxd2dG/uGmImfO3xkWZ/Pd+7NPffYiR9yqeTC4NKFcVoiWf0/Zi2lKqWK9A5INzDS8UEWL6UK2RikaSlVpOODLF5KFbIxSNNSqkjHB1m8lCpkY5CmpVQLiK+qquqxY5yml9weZunEDreHoekl4oPHFRUVBSwqn+SYqVZXV29vfx2NJ1OZg/TeLyd6pDL70Vhy/Sv/f3R7HKtVVVUbz55HYslUZv9ETYLJU+n9SCy5vu4vLy/PF1zenmirSqVy49lWJJpIpk/JJ2s4md6PRBPLq5+XlZXldQRtirOqVCo/++LLcDR+yj6B23A07vX5FAoF1BC8IcKqQqHw+VbCkXgyvQdurVMukum9UCS25PHK5XK4KeFOoVbLy8sZry/09wN6Zj5fZZvaC4Vji26P2GwLsqpQKBjfcjAcTZy1T9ZtIrUXDEVp2i0q26OtKhQKenEpEIokUplTvl3zfFwimQmEItT8QuHfUkdYlclkn1LzgWAkkTxHPrNbcBBPpgPByJOnTplMJvx0vs7msyqXy53O2d1AOJ7MpE/+VSFPhoKtVOYgnkjvBsPTT56Wlpa+7kvgCmpVJpN9/MnUy0AolkifwiuRoJkjyVTmIJZIvwyEPpwkj8xW2Crr88VuMJZInVuf7EZk3aZe7AYnJz/Kn62AVblcPjY2xjDeeZdrgaYX6EX+Qf9DgoKv4TOsWHAIl6TpxZxLdipAssW/5wV63uVivF6bzZYnWwGrnZ2dJpOppaXlDaTQ0tKC43hHR4fAY5qlBKwaDAYMw9rb29/koba2lsedF6KtrQ3DMJPJJM7q8PCwRqOpRwoajWZ4eFic1b6+PrvdrtVq7yAFrVZrt9sxDBORan9/P0EQOp2usbGxoaGBPTdk0chBDpOjBF22YLtgKu7M7JRAxlUCPbcLZs7p6nQ6giDEWTUajRMTE3q9vkkI9966d+edOzVYTZ2+7u6Du0KSs+H0ev3ExASO4yJSHRgYIEnSYDA086FqrrPUle2WXf3javGvxRWeiqa2Jr4KMCqVCtSFF8cbZTAYSJIUl+rAwMD09LTRaHzAQ7Om+fp3102Hpp7DnvrD+uJI8e33b/NUZ0MYjcapqSmz2SwuVafTieO4OovW1la1Ws2e7793/1biFnVIMYeM8U9j0U9FNdM1OTKgb80CjGX5HDG3y+q5Z7bLnYfbBROyBYZhTqdTnFWTyTQ7Ozs0NPQ2D+ou9Y1vb+C/4+O/jd/8+eblHy83WZt4qrMhLBbL3NycOKsYhlEUZbVaO3nQdGpUVtW1b64V/VB05fsrNXRNx7sdPNWJEBqNJv+8VquVoijRVl0ul81m03LQ1dX16qpL+9DwUD2kbje1P9I9YsmuLDjyQkswLShyRsL4HJlWq7XZbC6Xa3BwsAQCgRdDDMNomh4ZGdEhhZGREZqmxaWK47jb7SYIQs9Bd3c3ewUKvV7P1lyGM0K4zBHnXPLHHCkAqyIIwu12i7bKMIzD4ehFCg6Hw+PxiLNqNpsZhiFJsh8pkCTp9XotFgvkURX6P7DZbPb5fCsrK6OjoziOY+ceOI4TBLG6urq8vCzOak9Pz9ramt/v38xiY2PDn8VGFmzNPXMFXJ6tQTenxeVBDT4CMPxJgAa0Njc3t7a2/H7/2tpab2+viFQrKyspitrZ2dne3t5CBNtZzMzMKJVKEVZhUtR5gd9V1C3B1i9Zhe0MyryUKsrpwdYupQrbGZR5KVWU04OtXUoVtjMo81KqKKcHW7uUKmxnUOalVFFOD7Z2KVXYzqDMS6minB5s7Rco1b8A06QNSklD150AAAAASUVORK5CYII=;shadow=1;" parent="1" vertex="1">
          <mxGeometry x="677.4200000000001" y="306" width="45.16" height="44" as="geometry" />
        </mxCell>
      </root>
    </mxGraphModel>
  </diagram>
</mxfile>
